<?xml version="1.0" encoding="UTF-8" standalone="no"?>
<svg
   xmlns:dc="http://purl.org/dc/elements/1.1/"
   xmlns:cc="http://creativecommons.org/ns#"
   xmlns:rdf="http://www.w3.org/1999/02/22-rdf-syntax-ns#"
   xmlns:svg="http://www.w3.org/2000/svg"
   xmlns="http://www.w3.org/2000/svg"
   xmlns:sodipodi="http://sodipodi.sourceforge.net/DTD/sodipodi-0.dtd"
   xmlns:inkscape="http://www.inkscape.org/namespaces/inkscape"
   width="30"
   height="12"
   viewBox="0 0 30 12"
   version="1.1"
   id="svg2"
   inkscape:version="0.91 r13725"
   sodipodi:docname="npm-logo-black.svg">
  <metadata
     id="metadata12">
    <rdf:RDF>
      <cc:Work
         rdf:about="">
        <dc:format>image/svg+xml</dc:format>
        <dc:type
           rdf:resource="http://purl.org/dc/dcmitype/StillImage" />
        <dc:title>npm-logo</dc:title>
      </cc:Work>
    </rdf:RDF>
  </metadata>
  <sodipodi:namedview
     pagecolor="#ffffff"
     bordercolor="#666666"
     borderopacity="1"
     objecttolerance="10"
     gridtolerance="10"
     guidetolerance="10"
     inkscape:pageopacity="0"
     inkscape:pageshadow="2"
     inkscape:window-width="1306"
     inkscape:window-height="770"
     id="namedview10"
     showgrid="false"
     inkscape:zoom="13.248"
     inkscape:cx="12.370924"
     inkscape:cy="2.2583172"
     inkscape:window-x="199"
     inkscape:window-y="1"
     inkscape:window-maximized="0"
     inkscape:current-layer="svg2" />
  <title
     id="title4">npm-logo</title>
  <description>Created with Sketch (http://www.bohemiancoding.com/sketch)</description>
  <defs
     id="defs6" />
  <path
     style="fill:#000000;fill-rule:evenodd;stroke:none;stroke-width:1"
     d="m 0.23910144,0.28802727 29.58286856,0 0,9.93984473 -14.791434,0 0,1.597474 -6.5673973,0 0,-1.597474 -8.22403726,0 z"
     id="path3370"
     inkscape:connector-curvature="0" />
  <path
     style="fill:#ffffff;fill-rule:evenodd;stroke:none;stroke-width:1"
     d="m 1.9137432,8.5412433 3.2678412,1.93e-5 10e-8,-4.9660284 1.6429148,0 0,4.9660284 1.6281362,0 0,-6.5674294 -6.5388923,0 z"
     id="path3368"
     inkscape:connector-curvature="0" />
  <path
     style="fill:#ffffff;fill-rule:evenodd;stroke:none;stroke-width:1"
     d="m 10.080336,1.9446683 0.01972,8.2832037 3.254115,0 0,-1.652659 3.294299,0 0,-6.6305447 z"
     id="path3366"
     inkscape:connector-curvature="0" />
  <path
     style="fill:#000000;fill-rule:evenodd;stroke:none;stroke-width:1"
     d="m 13.314729,3.5421427 1.715807,0 0,3.3724476 -1.715807,0 z"
     id="path3364"
     inkscape:connector-curvature="0" />
  <path
     style="fill:#ffffff;fill-rule:evenodd;stroke:none;stroke-width:1"
     d="m 18.304373,1.9446683 0,6.5673965 3.273719,0 0,-4.9305171 1.636919,0 0,4.93055 1.635137,0 0,-4.9107894 1.6387,0 0,4.9107565 1.637355,0 0,-6.5673965 z"
     id="path3362"
     inkscape:connector-curvature="0" />
  <path
     style="fill:#cd3632;fill-rule:evenodd;stroke:none;stroke-width:1"
     d="M 18.304373,1.9446683"
     id="Rectangle 1"
     inkscape:connector-curvature="0" />
</svg>
